<svg id="Layer_1" data-name="Layer 1" xmlns="http://www.w3.org/2000/svg" width="69.92" height="75" viewBox="0 0 69.92 75">
  <title>icon-template</title>
  <rect y="13.53" width="33.83" height="21.43" fill="#343a40"/>
  <rect x="36.09" y="14.38" width="29.89" height="2.82" fill="#343a40"/>
  <rect x="36.09" y="20.02" width="33.83" height="1.13" fill="#8d8d8d"/>
  <rect x="36.09" y="21.71" width="33.83" height="1.13" fill="#8d8d8d"/>
  <rect x="36.09" y="23.4" width="33.83" height="1.13" fill="#8d8d8d"/>
  <rect x="36.09" y="25.09" width="33.83" height="1.13" fill="#8d8d8d"/>
  <rect x="36.09" y="26.79" width="16.92" height="1.13" fill="#8d8d8d"/>
  <rect x="36.09" y="30.73" width="9.59" height="3.38" fill="#343a40"/>
  <rect x="37.5" y="31.86" width="6.77" height="1.13" fill="#8d8d8d"/>
  <rect x="35.53" y="40.04" width="34.14" height="21.43" fill="#343a40"/>
  <rect y="40.88" width="29.89" height="2.82" fill="#343a40"/>
  <rect y="46.52" width="33.83" height="1.13" fill="#8d8d8d"/>
  <rect y="48.21" width="33.83" height="1.13" fill="#8d8d8d"/>
  <rect y="49.91" width="33.83" height="1.13" fill="#8d8d8d"/>
  <rect y="51.6" width="33.83" height="1.13" fill="#8d8d8d"/>
  <rect y="53.29" width="16.92" height="1.13" fill="#8d8d8d"/>
  <rect y="57.24" width="9.59" height="3.38" fill="#343a40"/>
  <rect x="1.41" y="58.36" width="6.77" height="1.13" fill="#8d8d8d"/>
  <rect y="64.85" width="69.66" height="10.15" fill="#343a40"/>
  <rect width="69.92" height="10.15" fill="#343a40"/>
  <circle cx="5.64" cy="5.08" r="2.26" fill="#8d8d8d"/>
  <rect x="11.28" y="4.51" width="6.77" height="1.13" fill="#8d8d8d"/>
  <rect x="20.3" y="4.51" width="6.77" height="1.13" fill="#8d8d8d"/>
  <rect x="29.32" y="4.51" width="6.77" height="1.13" fill="#8d8d8d"/>
  <rect x="38.35" y="4.51" width="6.77" height="1.13" fill="#8d8d8d"/>
</svg>
